<?xml version="1.0" standalone="no"?>
<!DOCTYPE svg PUBLIC "-//W3C//DTD SVG 20010904//EN"
 "http://www.w3.org/TR/2001/REC-SVG-20010904/DTD/svg10.dtd">
<svg version="1.0" xmlns="http://www.w3.org/2000/svg"
 width="170.000000pt" height="32.000000pt" viewBox="0 0 170.000000 32.000000"
 preserveAspectRatio="xMidYMid meet">

<g transform="translate(0.000000,32.000000) scale(0.100000,-0.100000)"
fill="#000000" stroke="none">
<path d="M0 160 l0 -160 850 0 850 0 0 160 0 160 -850 0 -850 0 0 -160z m440
75 c0 -10 -16 -15 -62 -17 -55 -3 -63 -5 -63 -23 0 -17 8 -20 60 -23 67 -4 85
-14 85 -49 0 -54 -14 -63 -100 -63 -63 0 -80 3 -80 15 0 11 17 15 73 17 64 3
72 5 72 23 0 17 -8 20 -50 23 -88 4 -95 8 -95 50 0 53 13 62 92 62 53 0 68 -3
68 -15z m220 -10 c0 -16 6 -25 15 -25 8 0 15 -7 15 -15 0 -8 -7 -15 -15 -15
-11 0 -15 -11 -15 -40 0 -22 5 -40 10 -40 6 0 10 -7 10 -15 0 -9 -9 -15 -25
-15 -24 0 -25 3 -25 55 0 30 -4 55 -10 55 -5 0 -10 7 -10 15 0 8 5 15 10 15 6
0 10 11 10 25 0 16 6 25 15 25 9 0 15 -9 15 -25z m210 -70 c0 -78 -3 -95 -15
-95 -12 0 -15 17 -15 95 0 78 3 95 15 95 12 0 15 -17 15 -95z m40 0 c0 -78 -3
-95 -15 -95 -12 0 -15 17 -15 95 0 78 3 95 15 95 12 0 15 -17 15 -95z m360 80
c0 -8 -7 -15 -15 -15 -8 0 -15 7 -15 15 0 8 7 15 15 15 8 0 15 -7 15 -15z m0
-100 c0 -60 -3 -75 -15 -75 -12 0 -15 15 -15 75 0 60 3 75 15 75 12 0 15 -15
15 -75z m-675 -5 l0 -65 -60 0 c-54 0 -60 2 -63 22 -3 18 7 27 47 48 28 14 51
30 51 35 0 6 -22 10 -50 10 -28 0 -50 5 -50 10 0 7 24 10 63 8 l62 -3 0 -65z
m233 43 c3 -18 -7 -27 -47 -48 -28 -14 -51 -30 -51 -35 0 -6 23 -10 50 -10 28
0 50 -5 50 -10 0 -7 -24 -10 -62 -8 l-63 3 -3 54 c-5 79 -2 82 65 79 51 -3 58
-6 61 -25z m217 -43 l0 -65 -60 0 c-54 0 -60 2 -63 22 -3 18 7 27 47 48 28 14
51 30 51 35 0 6 -22 10 -50 10 -28 0 -50 5 -50 10 0 7 24 10 63 8 l62 -3 0
-65z m65 20 c13 -27 29 -50 35 -50 6 0 22 23 35 50 13 28 29 50 37 50 19 0 17
-8 -21 -75 -21 -39 -39 -60 -51 -60 -12 0 -30 21 -51 60 -38 67 -40 75 -21 75
8 0 24 -22 37 -50z m298 23 c3 -18 -7 -27 -47 -48 -28 -14 -51 -30 -51 -35 0
-6 23 -10 50 -10 28 0 50 -5 50 -10 0 -7 -24 -10 -62 -8 l-63 3 -3 54 c-5 79
-2 82 65 79 51 -3 58 -6 61 -25z m63 -24 l24 -52 22 49 c12 27 25 49 28 49 3
0 16 -22 28 -49 l22 -49 24 52 c14 28 30 51 38 51 7 0 13 -3 13 -7 0 -16 -66
-125 -75 -126 -6 0 -19 18 -30 39 l-20 39 -20 -39 c-11 -21 -24 -39 -29 -40
-9 -1 -76 111 -76 127 0 4 6 7 13 7 8 0 24 -23 38 -51z m-1256 -69 c0 -20 -6
-26 -28 -28 -18 -2 -29 2 -33 12 -11 28 4 48 33 44 22 -2 28 -8 28 -28z"/>
<path d="M523 123 c-46 -23 -43 -43 7 -43 38 0 40 2 40 30 0 34 -3 35 -47 13z"/>
<path d="M730 150 c0 -35 -1 -35 45 -13 48 23 46 43 -5 43 -38 0 -40 -2 -40
-30z"/>
<path d="M973 123 c-46 -23 -43 -43 7 -43 38 0 40 2 40 30 0 34 -3 35 -47 13z"/>
<path d="M1310 150 c0 -35 -1 -35 45 -13 48 23 46 43 -5 43 -38 0 -40 -2 -40
-30z"/>
</g>
</svg>
